<?xml version="1.0" encoding="UTF-8"?>
<svg xmlns="http://www.w3.org/2000/svg" version="1.1" viewBox="0 0 2000 1000">
  <defs>
    <style>
      .cls-1 {
        fill: #fff;
      }
    </style>
  </defs>
  <!-- Generator: Adobe Illustrator 28.7.1, SVG Export Plug-In . SVG Version: 1.2.0 Build 142)  -->
  <g>
    <g id="Layer_1">
      <g>
        <g>
          <g>
            <path class="cls-1" d="M682.3,371.2h-52v-13.5h119.6v13.5h-52v134.4h-15.6v-134.4Z"/>
            <path class="cls-1" d="M919.6,357.7v147.9h-15.4v-68.2h-92.5v68.2h-15.6v-147.9h15.6v65.9h92.5v-65.9h15.4Z"/>
            <path class="cls-1" d="M1093.4,492v13.5h-104.6v-147.9h101.4v13.5h-85.8v52.6h76.5v13.3h-76.5v54.9h88.9Z"/>
            <path class="cls-1" d="M1151.3,357.7h15.6v147.9h-15.6v-147.9Z"/>
            <polygon class="cls-1" points="1298.3 357.7 1282.8 357.7 1215.2 505.6 1231.5 505.6 1249.2 466.1 1255 453.3 1290.4 373.9 1325.9 453.4 1331.6 466.1 1349.4 505.6 1365.9 505.6 1298.3 357.7"/>
            <path class="cls-1" d="M1510.9,431.6h15v56.4c-13.9,12.5-33.8,18.8-54.3,18.8-45,0-78-31.9-78-75.2s33-75.2,78.2-75.2,41.8,7.2,54.9,21.3l-9.7,9.9c-12.5-12.3-27.3-17.3-44.6-17.3-36.5,0-63.4,26-63.4,61.3s26.8,61.3,63.2,61.3,27.3-3.2,38.7-11.4v-49.9Z"/>
            <path class="cls-1" d="M1692.6,492h-85.8v-54.9h76.5v-13.3h-76.5v-52.6h85.8v-13.5h-101.4v147.9h101.5c0-4.5,0-9,0-13.5Z"/>
            <path class="cls-1" d="M1873,357.7v147.9h-12.9l-95.1-120v120h-15.6v-147.9h12.9l95.3,120v-120h15.4Z"/>
          </g>
          <g>
            <path class="cls-1" d="M657.2,611.9c-5.5,0-9.6,1.7-12.5,5.1-2.9,3.4-4.3,8.1-4.3,14.1s.3,5.5,1,7.9c.7,2.4,1.7,4.4,3.1,6.1,1.4,1.7,3,3,5.1,3.9,2,.9,4.4,1.4,7.1,1.4s3.1,0,4.4-.2c1.2-.1,2.2-.3,2.9-.5v-19.1h9.7v25.5c-1.3.5-3.6,1.1-6.7,1.7-3.2.6-6.8.9-11,.9s-7.3-.6-10.5-1.8c-3.2-1.2-5.9-3-8.1-5.4-2.2-2.3-3.9-5.2-5.2-8.7-1.2-3.4-1.8-7.4-1.8-11.8s.7-8.4,2-11.8c1.4-3.4,3.2-6.3,5.6-8.7,2.3-2.4,5.1-4.2,8.3-5.4,3.2-1.2,6.5-1.8,10.1-1.8s4.6.2,6.6.5c1.9.3,3.6.7,4.9,1.1,1.4.4,2.5.8,3.4,1.3.9.5,1.5.8,1.9,1l-2.9,7.9c-1.5-.9-3.4-1.7-5.7-2.3-2.3-.6-4.7-1-7.2-1Z"/>
            <path class="cls-1" d="M729.4,649.3v8.4h-33.6v-53.1h9.7v44.7h23.9Z"/>
            <path class="cls-1" d="M794.2,631.1c0,4.5-.7,8.6-2,12-1.4,3.5-3.2,6.4-5.5,8.7-2.3,2.3-5,4.1-8.2,5.2-3.1,1.2-6.4,1.8-10,1.8s-6.9-.6-10-1.8c-3.1-1.2-5.9-2.9-8.2-5.2-2.3-2.3-4.2-5.2-5.6-8.7-1.4-3.5-2.1-7.5-2.1-12s.7-8.5,2.1-12c1.4-3.4,3.3-6.3,5.6-8.7,2.4-2.3,5.1-4.1,8.2-5.3,3.1-1.2,6.4-1.8,9.9-1.8s6.8.6,9.9,1.8c3.1,1.2,5.8,2.9,8.2,5.3,2.3,2.4,4.2,5.2,5.6,8.7,1.4,3.4,2.1,7.4,2.1,12ZM752.7,631.1c0,2.9.4,5.6,1.1,7.9.7,2.4,1.7,4.4,3.1,6.1,1.4,1.7,3,2.9,4.9,3.9,1.9.9,4.1,1.4,6.6,1.4s4.6-.5,6.5-1.4c1.9-.9,3.6-2.2,4.9-3.9,1.4-1.7,2.4-3.7,3.1-6.1.7-2.4,1.1-5,1.1-7.9s-.4-5.6-1.1-7.9c-.7-2.4-1.7-4.4-3.1-6.1-1.4-1.7-3-3-4.9-3.9-1.9-.9-4.1-1.4-6.5-1.4s-4.6.5-6.6,1.4c-1.9.9-3.6,2.2-4.9,3.9-1.4,1.7-2.4,3.7-3.1,6.1-.7,2.3-1.1,5-1.1,7.9Z"/>
            <path class="cls-1" d="M831.9,658.3c-2.8,0-5.6,0-8.5-.3-2.9-.2-5.4-.5-7.5-1.1v-51.6c1.1-.2,2.3-.4,3.6-.6,1.3-.2,2.6-.3,3.9-.4,1.3-.1,2.6-.2,3.9-.2,1.3,0,2.5,0,3.7,0,3.2,0,6.2.2,9,.7,2.8.5,5.1,1.3,7.2,2.4,2,1.1,3.6,2.6,4.7,4.4,1.1,1.8,1.7,4.1,1.7,6.8s-.6,4.6-1.8,6.4c-1.2,1.8-2.9,3.2-5,4.3,3.2,1.1,5.6,2.7,7.1,4.8,1.5,2.1,2.3,4.8,2.3,8,0,5.5-2,9.6-6,12.3-4,2.7-10.1,4.1-18.3,4.1ZM825.4,626.2h6.8c3.7,0,6.6-.5,8.7-1.6,2.1-1,3.1-2.9,3.1-5.6s-1.1-4.4-3.3-5.4c-2.2-1.1-5-1.6-8.5-1.6s-2.8,0-3.9,0c-1.1,0-2.1.1-2.9.2v13.9ZM825.4,633.8v16.2c1.1.1,2.2.2,3.4.2,1.2,0,2.3,0,3.4,0,2,0,3.8-.1,5.6-.4,1.7-.3,3.2-.7,4.4-1.3,1.3-.6,2.2-1.5,3-2.6.7-1.1,1.1-2.5,1.1-4.1,0-3-1.1-5.1-3.3-6.3-2.2-1.2-5.2-1.8-9.1-1.8h-8.5Z"/>
            <path class="cls-1" d="M912.6,657.7c-.7-2.1-1.5-4.2-2.2-6.2-.8-2-1.5-4.1-2.2-6.3h-22.4c-.7,2.1-1.4,4.3-2.2,6.3-.7,2.1-1.5,4.1-2.2,6.2h-10c2-5.7,3.9-10.9,5.7-15.7,1.8-4.8,3.5-9.3,5.2-13.6,1.7-4.3,3.4-8.4,5.1-12.3,1.7-3.9,3.4-7.7,5.2-11.5h9.2c1.8,3.8,3.5,7.6,5.2,11.5,1.7,3.9,3.4,8,5.1,12.3,1.7,4.3,3.5,8.8,5.3,13.6,1.8,4.8,3.7,10,5.7,15.7h-10.4ZM897,614.9c-1.2,2.7-2.5,6-4,9.9-1.5,3.9-3.1,8.1-4.7,12.6h17.5c-1.6-4.5-3.2-8.8-4.7-12.7-1.5-3.9-2.9-7.2-4-9.8Z"/>
            <path class="cls-1" d="M974.4,649.3v8.4h-33.6v-53.1h9.7v44.7h23.9Z"/>
            <path class="cls-1" d="M1054.5,604.6h9.7v53.1h-9.7v-23.5h-23.1v23.5h-9.7v-53.1h9.7v21.2h23.1v-21.2Z"/>
            <path class="cls-1" d="M1088,657.7v-53.1h34.1v8.2h-24.4v13.1h21.8v8h-21.8v15.6h26.3v8.2h-35.9Z"/>
            <path class="cls-1" d="M1180.5,657.7c-.7-2.1-1.5-4.2-2.2-6.2-.8-2-1.5-4.1-2.2-6.3h-22.4c-.7,2.1-1.4,4.3-2.2,6.3s-1.5,4.1-2.2,6.2h-10c2-5.7,3.9-10.9,5.7-15.7,1.8-4.8,3.5-9.3,5.2-13.6,1.7-4.3,3.4-8.4,5.1-12.3,1.7-3.9,3.4-7.7,5.2-11.5h9.2c1.8,3.8,3.5,7.6,5.2,11.5,1.7,3.9,3.4,8,5.1,12.3,1.7,4.3,3.5,8.8,5.3,13.6,1.8,4.8,3.7,10,5.7,15.7h-10.4ZM1164.8,614.9c-1.2,2.7-2.5,6-4,9.9-1.5,3.9-3.1,8.1-4.7,12.6h17.5c-1.6-4.5-3.2-8.8-4.7-12.7-1.5-3.9-2.9-7.2-4-9.8Z"/>
            <path class="cls-1" d="M1242.3,649.3v8.4h-33.6v-53.1h9.7v44.7h23.9Z"/>
            <path class="cls-1" d="M1289.8,604.6v8.4h-16.3v44.7h-9.7v-44.7h-16.3v-8.4h42.4Z"/>
            <path class="cls-1" d="M1341,604.6h9.7v53.1h-9.7v-23.5h-23.1v23.5h-9.7v-53.1h9.7v21.2h23.1v-21.2Z"/>
            <path class="cls-1" d="M1403.5,604.6h9.7v53.1h-9.7v-53.1Z"/>
            <path class="cls-1" d="M1472.7,657.7c-1.7-2.9-3.7-6-5.8-9.4-2.1-3.3-4.4-6.7-6.7-10.1s-4.6-6.7-7-9.9c-2.4-3.2-4.6-6.1-6.8-8.6v38h-9.5v-53.1h7.9c2,2.1,4.2,4.7,6.6,7.6,2.3,2.9,4.7,6,7.1,9.2,2.4,3.2,4.7,6.3,6.9,9.5,2.2,3.2,4.2,6.2,5.9,8.9v-35.2h9.6v53.1h-8.2Z"/>
            <path class="cls-1" d="M1504.8,604.6h9.7v53.1h-9.7v-53.1Z"/>
            <path class="cls-1" d="M1575.3,604.6v8.4h-16.3v44.7h-9.7v-44.7h-16.3v-8.4h42.4Z"/>
            <path class="cls-1" d="M1593.7,604.6h9.7v53.1h-9.7v-53.1Z"/>
            <path class="cls-1" d="M1662.5,657.7c-.7-2.1-1.5-4.2-2.2-6.2-.8-2-1.5-4.1-2.2-6.3h-22.4c-.7,2.1-1.4,4.3-2.2,6.3-.7,2.1-1.5,4.1-2.2,6.2h-10c2-5.7,3.9-10.9,5.7-15.7,1.8-4.8,3.5-9.3,5.2-13.6,1.7-4.3,3.4-8.4,5.1-12.3,1.7-3.9,3.4-7.7,5.2-11.5h9.2c1.8,3.8,3.5,7.6,5.2,11.5,1.7,3.9,3.4,8,5.1,12.3,1.7,4.3,3.5,8.8,5.3,13.6,1.8,4.8,3.7,10,5.7,15.7h-10.4ZM1646.9,614.9c-1.2,2.7-2.5,6-4,9.9-1.5,3.9-3.1,8.1-4.7,12.6h17.5c-1.6-4.5-3.2-8.8-4.7-12.7-1.5-3.9-2.9-7.2-4-9.8Z"/>
            <path class="cls-1" d="M1723.4,604.6v8.4h-16.3v44.7h-9.7v-44.7h-16.3v-8.4h42.4Z"/>
            <path class="cls-1" d="M1741.8,604.6h9.7v53.1h-9.7v-53.1Z"/>
            <path class="cls-1" d="M1790.5,657.7c-3.8-8.3-7.5-16.9-11.1-26-3.6-9-6.9-18.1-9.9-27.1h10.7c1.2,3.6,2.5,7.2,3.8,11,1.3,3.7,2.6,7.4,3.8,11,1.3,3.6,2.6,7.1,3.8,10.5,1.3,3.4,2.5,6.5,3.8,9.3,1.2-2.8,2.4-5.9,3.7-9.2,1.3-3.3,2.6-6.8,3.9-10.5,1.3-3.6,2.6-7.3,3.9-11,1.3-3.7,2.5-7.4,3.7-11h10.3c-3.1,9-6.5,18.1-10,27.1-3.5,9-7.2,17.7-11.1,26h-9.3Z"/>
            <polygon class="cls-1" points="1873 649.5 1848.4 649.5 1848.4 633.9 1870.2 633.9 1870.2 625.9 1848.4 625.9 1848.4 612.8 1872.9 612.8 1872.9 604.6 1838.8 604.6 1838.8 657.7 1873 657.7 1873 649.5"/>
          </g>
        </g>
        <path class="cls-1" d="M522.1,485.5c-1.7-24.1-7.8-47.9-18.1-69.8-.3-.5-.5-1.1-.8-1.6-19.7-40.9-53.9-74.2-96.4-93.6-26.2-12-53.9-18-82.4-18-77.2,0-147.7,45.2-179.7,115.2-45.2,99-1.3,216.4,98,261.8,26.1,12,53.9,18,82.4,18,70.7,0,135.7-37.5,170.9-98.2.4.1-21.2-10.6-21.2-10.6-14,23.6-33.5,43.8-56.7,58.4-4.9,3.1-30.8,15.8-44.9,20.1-15.6,4.7-31.8,6.7-48.1,6.7s-9-.2-13.5-.5h-1.3c0,0-.7-1.2-.7-1.2-25.8-43.6-29.2-65.4-29-82.5.2-17.3,5.3-35.3,16.2-56.8,5.2-10.2,11.2-20.2,15.8-27.8,2.2-3.6,4.4-7.1,6.6-10.6l3.5-5.6c14.3-23.2,28-47.1,40.7-71.2,11.3-21.4,23.9-46.5,30-74.1l.7-3,2.8,1.2c20.5,9.4,38.6,22.3,54,38.4h.1c.7.9,1.4,1.6,2.1,2.3,6.5,7.1,12.5,14.8,17.8,22.9,6.9,10.6,12.7,22.1,17.1,34,7.9,21.2,11.6,43.3,11,65.8-.2,5.6-1,16-1.2,17.6,0,0-2.9,22.6-4.9,24.5l-2.9-1.2c-6.1-2.5-12.3-4.9-18.4-7.2l-2.4-.9c-5.6-2.1-10.8-4-15.8-5.8-.5-.2-1-.3-1.5-.4h-.4c-15.2-5.3-30.9-9.6-46.5-13-9.8-2.1-19.7-3.9-29.7-5.3-8.6-1.2-17.1-2.1-25.4-2.8-5.9-.5-11.9-.8-17.1-1.1l-13.1,22.9c1.1,0,2.3.1,3.4.2,8.2.4,16.7.9,24.9,1.5,4.8.4,9.7.9,14.7,1.4,9.7,1.1,19.6,2.7,29.3,4.5,18.2,3.5,36.4,7.8,54,13.7,21.1,7.1,54.6,23,61,27.2,0,0,2.7-7.1,3.6-9.9,1.2-3.6,2.3-7.3,3.3-11,6.9-24.4,9.8-49.7,8-75ZM274.7,666.4c-7.5-2.3-14.9-5.1-22.1-8.4-21.4-9.8-40.3-23.5-56.1-40.6-15.2-16.6-27-35.7-34.9-56.9-7.9-21.2-11.6-43.3-11-65.8.5-19.1,4.2-37.9,11.1-56l3.4-9.1s4.9,16.1,5.5,18c7,23.9,21.4,44.5,40.6,58,13.8,9.7,43.3,18.7,58.6,22.5l2.9.7-1.2,2.7c-9.4,20.7-14.1,39.7-14.3,57.8-.2,22.6,6.3,45.9,20.4,73.5l2.7,5.2-5.6-1.7ZM371.2,334.9c-.8,4.1-1.8,8.4-3,12.7-2.7,9.7-6.5,19.8-11.5,30.9-4.5,10.1-9.4,19.6-13.6,27.5l-.4.8c-6,11.4-12.4,23-18.9,34.4-6.8,12-13.9,23.9-21,35.4l-3.4,5.6c-4.4,7-9.3,15-13.9,23l-.9,1.5-1.7-.3c-3.9-.8-38.2-7.8-52-16-2.1-1.3-4.1-2.5-5.9-3.8-6.2-4.4-11.8-9.8-16.7-16.1-6.9-8.9-12.2-19.5-15.3-30.8-2.9-10.4-3.9-20.9-3-31.3,0,0,0-.3,0-.3.4-4.3.9-8.5,2.1-12.6,1.3-4.6,2.7-9.3,5.2-13.5,2.4-4.1,6.6-7.4,10.1-10.5,7.5-6.8,15.7-13,24.3-18.4,27.9-17.5,60.1-26.8,93-26.8,15.2,0,30.3,2,44.9,5.9l2.2.6-.4,2.3Z"/>
      </g>
    </g>
  </g>
</svg>