<?xml version="1.0" encoding="UTF-8"?>
<svg xmlns="http://www.w3.org/2000/svg" version="1.1" viewBox="0 0 363 67" width="420" height="85" fill="none">
  <defs>
    <style>
      .cls-1 {
        fill: #fff;
      }
    </style>
  </defs>
  <!-- Generator: Adobe Illustrator 28.7.1, SVG Export Plug-In . SVG Version: 1.2.0 Build 142)  -->
  <g>
    <g id="Layer_1">
      <g id="Layer_1-2" data-name="Layer_1">
        <g>
          <g>
            <path class="cls-1" d="M205.176,41.9072l-8.0542-17.5087c-.1258-.2682-.3977-.4421-.6937-.4421h-1.2745c-.296,0-.5679.1739-.6955.4449l-8.0505,17.5023c-.1101.2359-.0925.5096.0499.7362.1424.2201.3829.3515.6437.3515h1.3754c.2997,0,.5735-.1767.6974-.4504l6.6049-14.5675,6.6298,14.5712c.1258.2719.3996.4467.6974.4467h1.3744c.2608,0,.5013-.1313.6456-.3533.1387-.2201.1591-.493.0499-.7307h0Z"/>
            <g>
              <path class="cls-1" d="M125.1178,24.0426h-14.5286c-.2618,0-.4736.2118-.4736.4736v1.6427c0,.2618.2118.4736.4736.4736h5.8418v15.8513c0,.2618.2118.4736.4736.4736h1.8979c.2618,0,.4736-.2118.4736-.4736v-15.8513h5.8418c.2618,0,.4736-.2118.4736-.4736v-1.6427c0-.2618-.2118-.4736-.4736-.4736h0Z"/>
              <path class="cls-1" d="M147.0181,24.0426h-1.8739c-.2618,0-.4736.2118-.4736.4736v7.5362h-10.2962v-7.5362c0-.2618-.2118-.4736-.4736-.4736h-1.8979c-.2618,0-.4736.2118-.4736.4736v17.9675c0,.2618.2118.4736.4736.4736h1.8979c.2618,0,.4736-.2118.4736-.4736v-7.8174h10.2962v7.8174c0,.2618.2118.4736.4736.4736h1.8739c.2618,0,.4736-.2118.4736-.4736v-17.9675c0-.2618-.2118-.4736-.4736-.4736Z"/>
              <path class="cls-1" d="M169.4344,40.3675h-10.3314v-5.7253h8.8163c.2618,0,.4736-.2118.4736-.4736v-1.6186c0-.2618-.2118-.4736-.4736-.4736h-8.8163v-5.4441h9.9466c.2618,0,.4736-.2118.4736-.4736v-1.6427c0-.2618-.2118-.4736-.4736-.4736h-12.3199c-.2618,0-.4736.2118-.4736.4736v17.9675c0,.2618.2118.4736.4736.4736h12.7047c.2618,0,.4736-.2118.4736-.4736v-1.6427c0-.2618-.2118-.4736-.4736-.4736v.0003Z"/>
              <rect class="cls-1" x="177.287" y="24.0426" width="2.8451" height="18.9146" rx=".4736" ry=".4736"/>
            </g>
            <path class="cls-1" d="M218.9787,26.5307c2.1014,0,3.7182.6262,5.0852,1.9692.0869.0869.2072.136.3311.136h.0037c.1258-.0009.246-.0527.3348-.1424l1.1802-1.2061c.1757-.1804.1813-.4671.0092-.653-1.6612-1.7962-4.09-2.7452-7.022-2.7452-5.777,0-9.9706,4.0419-9.9706,9.6118s4.1825,9.6099,9.9447,9.6099c2.723,0,5.1777-.8537,6.9128-2.4048.0999-.0897.1572-.2183.1572-.3533v-6.8518c0-.2618-.2127-.4736-.4736-.4736h-1.8221c-.2608,0-.4736.2118-.4736.4736v5.8085c-1.1672.7806-2.5509,1.1598-4.2232,1.1598-4.1732,0-7.2014-2.9311-7.2014-6.9683s3.0393-6.9702,7.2273-6.9702h.0003Z"/>
            <path class="cls-1" d="M247.4015,40.3675h-10.3314v-5.7253h8.8163c.2608,0,.4736-.2118.4736-.4736v-1.6186c0-.2618-.2127-.4736-.4736-.4736h-8.8163v-5.4441h9.9466c.2608,0,.4736-.2118.4736-.4736v-1.6427c0-.2618-.2127-.4736-.4736-.4736h-12.3199c-.2608,0-.4736.2118-.4736.4736v17.9675c0,.2618.2127.4736.4736.4736h12.7047c.2608,0,.4736-.2118.4736-.4736v-1.6427c0-.2618-.2127-.4736-.4736-.4736v.0003Z"/>
            <path class="cls-1" d="M292.7416,40.3675h-10.3314v-5.7253h8.8163c.2608,0,.4736-.2118.4736-.4736v-1.6186c0-.2618-.2127-.4736-.4736-.4736h-8.8163v-5.4441h9.9466c.2608,0,.4736-.2118.4736-.4736v-1.6427c0-.2618-.2127-.4736-.4736-.4736h-12.3199c-.2608,0-.4736.2118-.4736.4736v17.9675c0,.2618.2127.4736.4736.4736h12.7047c.2608,0,.4736-.2118.4736-.4736v-1.6427c0-.2618-.2127-.4736-.4736-.4736v.0003Z"/>
            <path class="cls-1" d="M270.7409,24.0426h-1.8739c-.2608,0-.4736.2118-.4736.4736v13.2227l-10.7328-13.5168c-.0888-.1138-.2257-.1794-.37-.1794h-1.565c-.2608,0-.4736.2118-.4736.4736v17.9675c0,.2618.2127.4736.4736.4736h1.8998c.2608,0,.4736-.2118.4736-.4736v-13.218l10.7032,13.5122c.0906.1138.2275.1794.3718.1794h1.5668c.2608,0,.4736-.2118.4736-.4736v-17.9675c0-.2618-.2127-.4736-.4736-.4736h0Z"/>
            <path class="cls-1" d="M307.2722,24.0426h-6.7242c-.2608,0-.4736.2118-.4736.4736v17.9675c0,.2618.2127.4736.4736.4736h1.8979c.2608,0,.4736-.2118.4736-.4736v-5.198h4.3527c4.8188,0,7.8137-2.5324,7.8137-6.6095,0-4.0918-2.9949-6.6335-7.8137-6.6335h0ZM302.9196,26.6324h4.3009c2.2901,0,5.0186.7011,5.0186,4.0437,0,3.301-2.7285,3.9938-5.0186,3.9938h-4.3009v-8.0376h0Z"/>
            <rect class="cls-1" x="319.9404" y="24.0426" width="2.8451" height="18.9146" rx=".4736" ry=".4736"/>
          </g>
          <g>
            <path class="cls-1" d="M48.4992,18.9091c.1588.1138.3452.1733.5367.1733.0506,0,.1016-.0041.1525-.0125.2436-.0402.457-.173.601-.3738,4.1511-5.7931,10.6217-9.2747,17.7526-9.5521.04-.0015.0725-.0109.0972-.0187.0318.009.0767.0207.1264.0196.2442,0,.4741-.0941.648-.2654.1759-.1733.2738-.4049.2754-.6521l.0165-2.4941c2.3588.0234,4.7084.3276,6.9843.9042.491.1246.9817-.1601,1.1172-.6472l.9168-3.2792c.1042-.3727-.0371-.7745-.3516-1-.0893-.0639-.1873-.1107-.2899-.1385-.2376-.0668-.4871-.0367-.7024.0847-.2154.1213-.3704.3192-.4364.5569l-.6774,2.4223c-2.1531-.479-4.3647-.7322-6.5766-.7528-.1669-.0013-.3358.0047-.4984.0106-.1066.0039-.2129.0079-.3137.0075-.0206-.0047-.049-.0109-.0833-.0111-.0427-.001-.0736.0084-.1092.0179-2.5198.0574-4.9858.3986-7.3327,1.0144l-.6118-2.3874c-.124-.4921-.6284-.7907-1.1253-.6663-.4934.1263-.7921.6311-.6657,1.1251l.8458,3.3013c.0597.236.2188.445.4388.575.2173.1231.479.1533.7177.0825,2.2078-.6509,4.5299-1.0428,6.9047-1.1656l-.0102,1.5493c-7.4555.4746-14.2129,4.2159-18.5599,10.2821-.1439.2008-.201.4456-.1608.6892.0402.2436.173.4569.3738.6009h-.0001Z"/>
            <path class="cls-1" d="M96.1965,27.4563c-1.2271-7.4323-5.266-13.9354-11.3726-18.3112-.2009-.1439-.4457-.2011-.6892-.1607-.2436.0402-.4569.173-.6009.3738-.2969.4144-.2014.9931.213,1.29,5.7055,4.0884,9.4791,10.1645,10.6258,17.1093,1.1467,6.9447-.4735,13.9115-4.5619,19.6169-3.2093,4.4788-7.6612,7.7845-12.882,9.568l-.5201-1.4787c4.9205-1.6703,9.1142-4.7781,12.1367-8.996,7.9535-11.0995,5.3941-26.6003-5.7053-34.5539-.2008-.1439-.446-.2012-.6891-.1608-.2437.0402-.457.173-.6009.3738-.0425.0592-.0649.1186-.0841.1717-.0442.0353-.0933.0757-.1357.1348l-2.8807,4.0201c.2483.1602.4946.3246.7364.4977.261.1871.5144.3829.7643.5829l2.5496-3.558c4.6487,3.6202,7.6883,8.8286,8.5657,14.6853.8882,5.9279-.5406,11.8691-4.0232,16.7292-2.8008,3.9087-6.6868,6.7862-11.2468,8.3299l-.8276-2.3531c-.1604-.4622-.6557-.7173-1.1284-.5816-5.7828,1.6688-11.9018.6177-16.7879-2.8835-3.1708-2.2721-5.564-5.3877-6.9219-9.0113-.0009-.018-.0028-.0468-.0141-.0793-.0107-.0313-.0253-.0553-.0358-.0687-1.3141-3.5942-1.5387-7.4726-.6493-11.2162.0861-.3667-.0558-.7452-.3614-.9642-.0975-.0699-.2068-.1198-.3253-.1484-.495-.1177-.9942.1899-1.1132.6867-.8985,3.7851-.7478,7.7371.435,11.4411l-4.7146,1.6302c-1.7391-5.351-1.715-11.0205.0712-16.4073.1292-.3863-.0067-.8054-.3384-1.043-.0747-.0535-.1579-.0957-.2471-.1253-.2338-.0782-.4844-.0603-.7053.0504-.2211.1108-.3855.301-.463.5355-1.8735,5.6501-1.9376,11.6111-.1854,17.2387,1.7334,5.5675,5.114,10.3944,9.7818,13.9695l-3.4382,4.7979c-.2968.4144-.2012.9931.213,1.2901.4144.2968.9931.2015,1.2902-.213l3.9677-5.5373c.297-.4144.2014-.9931-.213-1.2902-4.0799-2.9234-7.2214-6.9082-9.094-11.5318l4.7131-1.6298c1.5309,3.6612,4.0422,6.815,7.2708,9.1286,5.085,3.6437,11.4669,4.873,17.5335,3.3827l1.6508,4.6919c-2.4572.6514-4.9773.9459-7.4937.877-.0838-.0029-.1588.0128-.2296.0318-.0939-.0317-.1834-.0477-.2724-.0487-.2455.0038-.48.0908-.6565.2631-.1764.1724-.2749.4035-.2776.6505l-.0266,2.428c-3.0682-.226-6.0472-.9127-8.8578-2.0424-.2297-.0918-.4908-.0877-.7176.0114-.2292.1025-.4041.2875-.4924.521l-1.201,3.1893c-.1811.4818.0558,1.0048.5402,1.191.4763.179,1.0106-.063,1.1912-.5402l.8724-2.3175c6.1572,2.2594,13.0229,2.5298,19.37.7627l.8409,2.3874c.0826.2336.2512.4209.4747.5274.1261.0601.2609.0904.3963.0904.1034,0,.2071-.0177.3072-.0533.2331-.082.4202-.2496.5267-.472.1065-.2224.1201-.4732.0382-.7062l-1.1311-3.2143c-.0635-.1803-.1787-.334-.333-.4447-.2329-.1669-.5362-.2163-.8114-.1321-2.9544.9138-6.0389,1.3584-9.1663,1.3206l.0169-1.5533c9.2098.1023,17.8906-4.2799,23.2473-11.7553,4.3758-6.1066,6.1099-13.5628,4.8827-20.9952v.0002Z"/>
            <path class="cls-1" d="M78.4495,16.4535c-2.912-1.8789-6.2602-2.87-9.7407-2.87l-.119.0004c-9.9155.065-17.9301,8.1854-17.8659,18.1017.0314,4.7961,1.9336,9.298,5.356,12.6765,3.3906,3.3472,7.8736,5.1905,12.6232,5.1905l.1237-.0004c4.8028-.0313,9.3068-1.9313,12.6824-5.3501,3.3734-3.4181,5.2143-7.9467,5.1835-12.7518-.0029-.4286-.213-.8338-.5621-1.0839-.2283-.1636-.5012-.2503-.7912-.2507l-4.7058.0305c.0522.4415.0806.8905.0844,1.3402.0029.4556-.0221.9048-.069,1.3477l3.288-.0213c-.2875,3.5853-1.8227,6.9499-4.3407,9.5005-2.8699,2.9081-6.7012,4.5243-10.7881,4.551l-.1028.0003c-4.0393,0-7.8526-1.568-10.7374-4.415-2.9119-2.874-4.53-6.7033-4.5561-10.7825-.0269-4.0785,1.541-7.9281,4.4147-10.8395,2.8738-2.9115,6.7027-4.5294,10.7818-4.5558l.1005-.0003c4.9934,0,9.6848,2.4483,12.5497,6.5489.2047.2936.5121.49.8656.5531.3544.0632.7117-.015,1.0067-.2207.6062-.4243.7553-1.2637.332-1.8717-.9903-1.4172-2.1705-2.6728-3.5127-3.747-.2498-.1999-.5032-.3958-.7643-.5829-.2418-.1731-.488-.3375-.7364-.4977Z"/>
            <path class="cls-1" d="M80.6335,30.1461c-.0177-.1501-.0381-.2993-.0614-.4474-.4899-3.1342-2.2728-6.0079-4.8914-7.8843-2.0594-1.4758-4.477-2.2549-6.9954-2.2549h-.0549c-4.2713.0269-8.2401,2.3501-10.3579,6.0634-.3645.642-.14,1.4639.5012,1.8327.3121.1782.6749.2243,1.0202.1294.3464-.0945.6352-.3182.8132-.6302,1.6444-2.8829,4.7254-4.6869,8.0411-4.7081l.058-.0002c4.5482,0,8.5081,3.3819,9.2109,7.8663.0026.0169.0052.0341.0076.0513l-19.8908.1303c-.7407.0051-1.3394.6121-1.3346,1.3534.045,6.5778,5.4323,11.9293,12.0091,11.9293l.0788-.0002c6.1652-.0411,11.2279-4.7477,11.8617-10.743.0468-.4429.0719-.8921.069-1.3477-.0038-.4497-.0322-.8987-.0844-1.3402h0ZM75.0381,38.4021c-1.7123,1.5884-3.9388,2.4716-6.2699,2.487-2.4822.0246-4.8285-.9323-6.6081-2.6861-1.4511-1.4335-2.3694-3.2367-2.6667-5.23l18.4461-.1209c-.2947,2.1196-1.3181,4.0814-2.9013,5.5499h-.0001Z"/>
          </g>
        </g>
      </g>
    </g>
  </g>
</svg>