<svg version="1.1" xmlns="http://www.w3.org/2000/svg" xmlns:xlink="http://www.w3.org/1999/xlink" width="363" height="67" viewBox="692,609.5,363,67"><defs><clipPath id="clip-1"><rect x="706.5" y="795.46667" transform="scale(1,0.78947)" width="38" height="38" id="clip-1" fill="none"/></clipPath></defs><g id="document" fill="#ffffff" fill-rule="nonzero" stroke="#000000" stroke-width="0" stroke-linecap="butt" stroke-linejoin="miter" stroke-miterlimit="10" stroke-dasharray="" stroke-dashoffset="0" font-family="none" font-weight="none" font-size="none" text-anchor="none" style="mix-blend-mode: normal"><rect x="1334.43526" y="4548.50746" transform="scale(0.51857,0.134)" width="700" height="500" id="Shape 1 1" vector-effect="non-scaling-stroke"/></g><g fill="none" fill-rule="nonzero" stroke="none" stroke-width="1" stroke-linecap="butt" stroke-linejoin="miter" stroke-miterlimit="10" stroke-dasharray="" stroke-dashoffset="0" font-family="none" font-weight="none" font-size="none" text-anchor="none" style="mix-blend-mode: normal"><g><g id="stage"><g id="layer1 1"><g clip-path="url(#clip-1)" id="Group 1"><circle cx="737.69" cy="800.07667" transform="scale(1,0.78947)" r="4.56" id="Shape 1" fill="#ff9c06"/><path d="M711.74,637.86842c1.42663,-0.416 2.9395,-0.61684 4.46,-0.59211h4.59v-2.04474h11.08c-2.09483,-2.07972 -2.09483,-5.02554 0,-7.10526h-12.68c-1.57655,-0.05879 -3.14148,0.2398 -4.51,0.86053c-1.86,0.93947 -3,2.73947 -2.94,5.87368v0.37105v0z" id="Path 1" fill="#000000"/><path d="M739.24,650.89474h-21.44v-4.26316h14c1.07406,0.01787 2.14467,-0.10211 3.17,-0.35526c0.54999,-0.16832 1.06554,-0.39977 1.53,-0.68684c1.76,-1.01842 2.77,-2.89737 2.66,-6.09474h-22.96c-1.57195,-0.05748 -3.13232,0.23817 -4.5,0.85263c-1.93,0.97895 -3.06,2.88158 -2.94,6.24474v0v11.40789h23.05c1.07048,0.01402 2.13703,-0.10588 3.16,-0.35526c0.57741,-0.1494 1.12091,-0.3706 1.61,-0.65526c1.76,-1.05 2.78,-2.93684 2.66,-6.09474z" id="Path 1" fill="#000000"/></g><text x="3093.13475" y="2339.24534" transform="scale(0.27917,0.27917)" id="PointText 1" fill="#000000" font-family="font-Asimov" font-weight="normal" font-size="120" text-anchor="middle">TheiaGenEpi</text></g></g></g></g></svg>